<?xml version="1.0" encoding="UTF-8" standalone="no"?>
<!-- Created with Inkscape (http://www.inkscape.org/) -->

<svg
   width="195.16911mm"
   height="158.61906mm"
   viewBox="0 0 195.16911 158.61906"
   version="1.1"
   id="svg1"
   xml:space="preserve"
   xmlns="http://www.w3.org/2000/svg"
   xmlns:svg="http://www.w3.org/2000/svg"><defs
     id="defs1" /><g
     id="layer1"
     transform="translate(-6.601645,-72.367289)"><g
       style="fill:#8be8cb;fill-opacity:1"
       id="g1"
       transform="matrix(0.53295479,0,0,0.53295479,6.6016451,54.091735)"><g
         id="g4"
         style="fill:#8be8cb;fill-opacity:1">
	<path
   d="m 159.933,159.671 17.939,22.999 c -1.365,2.833 -2.575,5.756 -3.618,8.742 l -28.949,3.579 c -2.757,0.341 -4.828,2.683 -4.828,5.461 v 37.2 c 0,2.777 2.071,5.12 4.828,5.461 l 28.95,3.576 c 1.042,2.984 2.253,5.905 3.618,8.737 l -17.939,23 c -1.708,2.19 -1.517,5.311 0.447,7.274 l 26.304,26.313 c 1.965,1.965 5.086,2.156 7.277,0.447 l 22.998,-17.944 c 2.828,1.363 5.75,2.572 8.738,3.616 l 3.576,28.953 c 0.34,2.758 2.684,4.828 5.461,4.828 h 37.203 c 2.777,0 5.121,-2.07 5.461,-4.828 l 3.576,-28.953 c 2.986,-1.043 5.908,-2.252 8.74,-3.617 l 23.006,17.945 c 2.189,1.709 5.311,1.518 7.275,-0.448 l 26.299,-26.311 c 1.965,-1.965 2.156,-5.084 0.447,-7.274 L 328.804,255.43 c 1.367,-2.832 2.578,-5.754 3.621,-8.74 l 28.949,-3.576 c 2.758,-0.341 4.828,-2.684 4.828,-5.461 v -37.2 c 0,-2.778 -2.07,-5.12 -4.828,-5.461 l -28.955,-3.579 c -1.045,-2.989 -2.254,-5.912 -3.617,-8.742 l 17.939,-22.999 c 1.709,-2.191 1.518,-5.313 -0.447,-7.276 L 319.989,126.1 c -1.963,-1.964 -5.084,-2.155 -7.273,-0.448 l -23,17.933 c -2.83,-1.364 -5.752,-2.574 -8.74,-3.618 L 277.4,111.022 c -0.342,-2.757 -2.684,-4.828 -5.461,-4.828 h -37.203 c -2.777,0 -5.121,2.071 -5.461,4.829 l -3.576,28.945 c -2.988,1.044 -5.91,2.253 -8.738,3.617 l -23,-17.938 c -2.189,-1.709 -5.31,-1.517 -7.275,0.447 l -26.303,26.301 c -1.966,1.964 -2.158,5.085 -0.45,7.276 z m 31.094,-22.355 21.925,17.1 c 1.719,1.342 4.07,1.541 5.99,0.508 4.217,-2.269 8.719,-4.133 13.381,-5.541 2.084,-0.63 3.602,-2.431 3.869,-4.593 l 3.408,-27.591 h 27.473 l 3.41,27.591 c 0.266,2.163 1.785,3.964 3.869,4.593 4.656,1.406 9.156,3.27 13.381,5.541 1.92,1.033 4.27,0.834 5.99,-0.507 l 21.924,-17.095 19.426,19.416 -17.102,21.922 c -1.34,1.72 -1.541,4.068 -0.508,5.989 2.268,4.222 4.133,8.726 5.541,13.388 0.631,2.084 2.432,3.602 4.594,3.869 l 27.6,3.411 v 27.47 l -27.594,3.408 c -2.162,0.268 -3.963,1.785 -4.594,3.872 -1.402,4.65 -3.27,9.15 -5.545,13.374 -1.035,1.922 -0.836,4.273 0.506,5.994 l 17.104,21.925 -19.422,19.431 -21.93,-17.105 c -1.719,-1.342 -4.068,-1.541 -5.99,-0.508 -4.225,2.271 -8.727,4.135 -13.379,5.539 -2.086,0.629 -3.605,2.431 -3.871,4.594 l -3.41,27.598 H 239.6 l -3.408,-27.598 c -0.268,-2.162 -1.785,-3.964 -3.871,-4.594 -4.66,-1.407 -9.162,-3.271 -13.379,-5.539 -1.922,-1.033 -4.271,-0.834 -5.992,0.508 l -21.922,17.105 -19.425,-19.431 17.101,-21.925 c 1.34,-1.719 1.539,-4.068 0.508,-5.989 -2.274,-4.23 -4.139,-8.732 -5.542,-13.38 -0.63,-2.086 -2.431,-3.604 -4.593,-3.871 l -27.594,-3.408 v -27.471 l 27.595,-3.41 c 2.162,-0.268 3.963,-1.785 4.593,-3.871 1.405,-4.653 3.269,-9.156 5.542,-13.386 1.031,-1.921 0.832,-4.27 -0.508,-5.989 l -17.1,-21.922 z"
   id="path1"
   style="fill:#8be8cb;fill-opacity:1" />
	<path
   d="m 253.337,263.69 c 24.611,0 44.633,-20.022 44.633,-44.633 0,-24.614 -20.022,-44.64 -44.633,-44.64 -24.611,0 -44.633,20.025 -44.633,44.64 0,24.611 20.021,44.633 44.633,44.633 z m 0,-78.266 c 18.541,0 33.627,15.088 33.627,33.634 0,18.542 -15.086,33.627 -33.627,33.627 -18.543,0 -33.627,-15.085 -33.627,-33.627 -0.001,-18.546 15.084,-33.634 33.627,-33.634 z"
   id="path2"
   style="fill:#8be8cb;fill-opacity:1" />
	<path
   d="m 14.886,76.621 12.932,16.581 c -0.775,1.665 -1.481,3.372 -2.116,5.115 L 4.827,100.9 C 2.07,101.242 0,103.584 0,106.361 v 27.898 c 0,2.778 2.071,5.121 4.829,5.461 l 20.872,2.578 c 0.634,1.74 1.341,3.448 2.117,5.115 l -12.932,16.579 c -1.708,2.19 -1.517,5.31 0.447,7.274 L 35.058,191 c 1.964,1.965 5.084,2.157 7.276,0.449 l 16.585,-12.933 c 1.663,0.773 3.37,1.479 5.112,2.112 l 2.583,20.874 c 0.341,2.757 2.683,4.827 5.461,4.827 H 99.97 c 2.778,0 5.121,-2.07 5.461,-4.827 l 2.582,-20.873 c 1.741,-0.632 3.45,-1.339 5.118,-2.114 l 16.579,12.933 c 2.19,1.709 5.313,1.517 7.276,-0.448 l 19.725,-19.734 c 1.963,-1.965 2.155,-5.084 0.447,-7.274 l -12.93,-16.577 c 0.78,-1.674 1.488,-3.383 2.121,-5.118 l 20.868,-2.577 c 2.757,-0.34 4.828,-2.683 4.828,-5.461 v -27.898 c 0,-2.777 -2.07,-5.119 -4.827,-5.461 l -20.875,-2.583 c -0.635,-1.743 -1.341,-3.451 -2.116,-5.115 L 157.158,76.62 c 1.709,-2.19 1.516,-5.311 -0.448,-7.274 L 136.985,49.619 c -1.965,-1.965 -5.085,-2.156 -7.276,-0.448 l -16.578,12.932 c -1.673,-0.779 -3.383,-1.487 -5.119,-2.119 L 105.43,39.118 c -0.341,-2.757 -2.683,-4.827 -5.461,-4.827 H 72.076 c -2.778,0 -5.12,2.069 -5.461,4.827 l -2.583,20.867 c -1.738,0.633 -3.445,1.34 -5.113,2.117 L 42.334,49.17 c -2.19,-1.707 -5.311,-1.515 -7.274,0.449 L 15.334,69.346 c -1.964,1.963 -2.156,5.083 -0.448,7.275 z m 24.517,-15.78 15.491,12.077 c 1.721,1.343 4.074,1.541 5.995,0.504 3.079,-1.659 6.364,-3.02 9.766,-4.045 2.087,-0.629 3.606,-2.43 3.874,-4.594 l 2.412,-19.487 h 18.167 l 2.412,19.487 c 0.268,2.165 1.789,3.967 3.877,4.595 3.386,1.018 6.675,2.38 9.776,4.047 1.921,1.033 4.271,0.835 5.991,-0.507 l 15.482,-12.076 12.846,12.846 -12.077,15.486 c -1.342,1.721 -1.54,4.072 -0.506,5.993 1.65,3.064 3.013,6.354 4.05,9.779 0.631,2.084 2.431,3.6 4.591,3.867 l 19.492,2.412 v 18.169 l -19.486,2.406 c -2.164,0.268 -3.967,1.787 -4.595,3.875 -1.019,3.383 -2.382,6.672 -4.052,9.777 -1.033,1.921 -0.835,4.271 0.507,5.991 l 12.077,15.482 -12.847,12.853 -15.481,-12.076 c -1.721,-1.342 -4.071,-1.541 -5.992,-0.507 -3.077,1.655 -6.366,3.015 -9.775,4.04 -2.089,0.628 -3.609,2.43 -3.877,4.594 l -2.412,19.496 H 76.94 l -2.412,-19.496 c -0.268,-2.162 -1.787,-3.964 -3.874,-4.593 -3.425,-1.032 -6.711,-2.391 -9.765,-4.038 -1.922,-1.037 -4.275,-0.84 -5.997,0.503 l -15.49,12.078 -12.848,-12.854 12.077,-15.482 c 1.342,-1.72 1.541,-4.07 0.507,-5.991 -1.656,-3.079 -3.019,-6.37 -4.05,-9.783 -0.63,-2.085 -2.431,-3.603 -4.593,-3.869 l -19.491,-2.406 v -18.169 l 19.492,-2.412 c 2.16,-0.268 3.96,-1.783 4.591,-3.866 1.038,-3.426 2.4,-6.717 4.05,-9.78 1.035,-1.921 0.837,-4.272 -0.505,-5.993 L 26.556,73.687 Z"
   id="path3"
   style="fill:#8be8cb;fill-opacity:1" />
	<path
   d="m 86.024,155.164 c 19.219,0 34.854,-15.635 34.854,-34.852 0,-19.218 -15.635,-34.851 -34.854,-34.851 -19.216,0 -34.85,15.634 -34.85,34.851 10e-4,19.217 15.635,34.852 34.85,34.852 z m 0,-58.697 c 13.15,0 23.848,10.697 23.848,23.846 0,13.149 -10.698,23.846 -23.848,23.846 -13.147,0 -23.844,-10.697 -23.844,-23.846 10e-4,-13.149 10.697,-23.846 23.844,-23.846 z"
   id="path4"
   style="fill:#8be8cb;fill-opacity:1" />
</g></g></g></svg>
