<?xml version="1.0" encoding="UTF-8" standalone="no"?>
<!-- Created with Inkscape (http://www.inkscape.org/) -->

<svg
   width="182.34552mm"
   height="186.69258mm"
   viewBox="0 0 182.34552 186.69258"
   version="1.1"
   id="svg1"
   xml:space="preserve"
   xmlns="http://www.w3.org/2000/svg"
   xmlns:svg="http://www.w3.org/2000/svg"><defs
     id="defs1" /><g
     id="layer1"
     transform="translate(-12.719087,-33.311748)"><g
       style="fill:#8be8cb;fill-opacity:1"
       id="g1"
       transform="matrix(0.52219646,0,0,0.52219646,10.545443,33.31177)"><g
         id="g4"
         style="fill:#8be8cb;fill-opacity:1">
	<g
   id="g3"
   style="fill:#8be8cb;fill-opacity:1">
		<path
   d="m 353.352,108.129 c 0,-12.128 -9.865,-21.994 -21.994,-21.994 H 217.682 c -4.143,0 -7.5,3.357 -7.5,7.5 v 35.42 c 0,2.581 1.326,4.982 3.514,6.354 2.186,1.371 4.928,1.523 7.248,0.399 3.305,-1.596 6.857,-2.405 10.561,-2.405 13.408,0 24.318,10.909 24.318,24.318 0,13.408 -10.91,24.317 -24.318,24.317 -3.703,0 -7.256,-0.81 -10.561,-2.405 -2.322,-1.123 -5.063,-0.97 -7.248,0.399 -2.188,1.372 -3.514,3.772 -3.514,6.354 v 27.959 h -17.758 c 0.334,-2.073 0.502,-4.184 0.502,-6.324 0,-21.679 -17.639,-39.316 -39.318,-39.316 -21.682,0 -39.318,17.638 -39.318,39.316 0,2.14 0.168,4.25 0.502,6.324 h -25.27 c -4.143,0 -7.5,3.357 -7.5,7.5 V 335.52 c 0,12.128 9.865,21.994 21.994,21.994 H 331.36 c 12.127,0 21.992,-9.866 21.992,-21.994 z M 97.022,335.52 V 229.344 h 27.92 c 2.58,0 4.98,-1.327 6.352,-3.513 1.373,-2.186 1.523,-4.924 0.402,-7.248 -1.598,-3.308 -2.406,-6.862 -2.406,-10.564 0,-13.408 10.908,-24.316 24.318,-24.316 13.408,0 24.318,10.908 24.318,24.316 0,3.703 -0.811,7.257 -2.406,10.563 -1.123,2.324 -0.971,5.063 0.4,7.248 1.373,2.187 3.771,3.514 6.354,3.514 h 27.908 v 17.768 c -2.07,-0.332 -4.176,-0.5 -6.313,-0.5 -0.002,0 -0.004,0 -0.004,0 -0.004,0 -0.006,0 -0.008,0 -21.68,0 -39.316,17.638 -39.316,39.316 0,21.681 17.637,39.318 39.316,39.318 0.002,0 0.004,0 0.008,0 0,0 0.002,0 0.004,0 2.137,0 4.242,-0.168 6.313,-0.5 v 17.768 H 104.016 c -3.857,0 -6.994,-3.137 -6.994,-6.994 z m 241.33,0 c 0,3.857 -3.137,6.994 -6.992,6.994 H 225.194 v -27.92 c 0,-2.581 -1.328,-4.98 -3.514,-6.353 -1.369,-0.858 -2.951,-1.239 -4.514,-1.13 -0.94,0.064 -1.873,0.307 -2.746,0.729 -3.305,1.596 -6.855,2.405 -10.557,2.406 -13.406,-0.004 -24.313,-10.911 -24.313,-24.318 0,-13.406 10.906,-24.313 24.313,-24.316 3.701,10e-4 7.252,0.811 10.557,2.406 1.162,0.563 2.43,0.805 3.68,0.734 1.25,-0.068 2.484,-0.448 3.58,-1.136 2.186,-1.372 3.514,-3.771 3.514,-6.353 v -27.92 h 17.752 c -0.33,2.061 -0.496,4.156 -0.496,6.283 0,0.006 0,0.012 0,0.018 0,0.007 0,0.014 0,0.021 0,21.681 17.637,39.318 39.316,39.318 21.68,0 39.318,-17.638 39.318,-39.318 0,-0.014 0,-0.025 0,-0.039 0,-2.127 -0.166,-4.223 -0.496,-6.283 h 17.764 z m 0,-121.215 h -27.92 c -2.58,0 -4.98,1.327 -6.352,3.514 -0.693,1.104 -1.072,2.348 -1.137,3.609 -0.068,1.248 0.174,2.516 0.734,3.678 1.596,3.305 2.406,6.857 2.406,10.561 -0.022,13.391 -10.922,24.279 -24.318,24.279 -13.4,0 -24.305,-10.898 -24.316,-24.298 0.002,-3.696 0.813,-7.243 2.404,-10.541 0.563,-1.163 0.805,-2.429 0.736,-3.679 -0.064,-1.261 -0.443,-2.506 -1.135,-3.609 -1.373,-2.187 -3.773,-3.514 -6.354,-3.514 h -27.92 v -17.77 c 2.072,0.334 4.182,0.502 6.322,0.502 21.68,0 39.318,-17.638 39.318,-39.317 0,-21.681 -17.639,-39.318 -39.318,-39.318 -2.141,0 -4.25,0.168 -6.322,0.502 v -17.77 h 106.176 c 3.857,0 6.994,3.138 6.994,6.994 v 106.177 z"
   id="path1"
   style="fill:#8be8cb;fill-opacity:1" />
		<g
   id="g2"
   style="fill:#8be8cb;fill-opacity:1">
			<path
   d="m 64.626,187.268 c -0.785,0 -1.574,-0.123 -2.334,-0.372 -1.891,-0.619 -3.457,-1.963 -4.357,-3.737 L 6.548,81.757 C 3.894,76.517 3.437,70.556 5.265,64.972 7.093,59.388 10.986,54.851 16.226,52.196 l 101.4,-51.387 c 3.693,-1.867 8.207,-0.394 10.08,3.3 l 11.422,22.54 c 1.699,-1.235 3.504,-2.339 5.412,-3.307 5.57,-2.821 11.539,-4.252 17.746,-4.252 14.912,0 28.361,8.259 35.098,21.552 9.801,19.338 2.041,43.044 -17.297,52.844 -1.908,0.968 -3.867,1.771 -5.867,2.41 l 11.424,22.541 c 1.873,3.695 0.395,8.208 -3.299,10.08 l -31.594,16.012 c -2.303,1.168 -5.043,1.067 -7.254,-0.261 -2.213,-1.33 -3.586,-3.703 -3.637,-6.283 -0.07,-3.67 -0.955,-7.207 -2.629,-10.513 -4.166,-8.222 -12.488,-13.33 -21.715,-13.33 -3.83,0 -7.52,0.886 -10.969,2.634 -5.793,2.936 -10.098,7.952 -12.117,14.126 -2.021,6.173 -1.518,12.763 1.418,18.557 1.676,3.305 4.004,6.108 6.922,8.334 2.051,1.565 3.154,4.076 2.918,6.646 -0.234,2.57 -1.775,4.84 -4.078,6.006 l -31.594,16.013 c -1.06,0.538 -2.224,0.81 -3.39,0.81 z M 117.716,17.58 23.005,65.577 c -1.666,0.844 -2.904,2.286 -3.484,4.062 -0.582,1.775 -0.438,3.672 0.408,5.338 l 47.996,94.712 15.852,-8.034 c -1.234,-1.698 -2.338,-3.505 -3.307,-5.414 -4.748,-9.368 -5.563,-20.023 -2.295,-30.005 3.268,-9.98 10.225,-18.092 19.594,-22.84 5.49,-2.782 11.629,-4.253 17.748,-4.253 14.91,0 28.359,8.258 35.096,21.551 0.967,1.91 1.771,3.868 2.41,5.868 l 15.851,-8.033 -12.623,-24.905 c -1.166,-2.303 -1.066,-5.044 0.264,-7.256 1.33,-2.212 3.705,-3.585 6.285,-3.634 3.668,-0.069 7.203,-0.953 10.508,-2.627 11.959,-6.061 16.758,-20.723 10.697,-32.683 -4.168,-8.224 -12.49,-13.333 -21.719,-13.333 -3.828,0 -7.518,0.886 -10.965,2.633 -3.301,1.672 -6.104,4.001 -8.332,6.921 -1.566,2.052 -4.076,3.148 -6.648,2.918 -2.568,-0.235 -4.838,-1.776 -6.004,-4.078 z"
   id="path2"
   style="fill:#8be8cb;fill-opacity:1" />
		</g>
	</g>
</g></g></g></svg>
